<svg width="19" height="18" viewBox="0 0 19 18" fill="none" xmlns="http://www.w3.org/2000/svg">
<path fill-rule="evenodd" clip-rule="evenodd" d="M1.77563 12V1.71429H0V0H2.66344C3.15377 0 3.55126 0.383756 3.55126 0.857143V11.1429H14.5939L16.3695 4.28571H5.32688V2.57143H17.5077C17.7812 2.57144 18.0394 2.69311 18.2076 2.90125C18.3758 3.10938 18.4353 3.38076 18.3689 3.63686L16.1493 12.2083C16.0504 12.5897 15.6954 12.8571 15.2882 12.8571H2.66344C2.17312 12.8571 1.77563 12.4734 1.77563 12ZM3.55124 18C2.57059 18 1.77561 17.2325 1.77561 16.2857C1.77561 15.3389 2.57059 14.5714 3.55124 14.5714C4.53189 14.5714 5.32687 15.3389 5.32687 16.2857C5.32687 17.2325 4.53189 18 3.55124 18ZM12.4294 16.2857C12.4294 17.2325 13.2243 18 14.205 18C15.1856 18 15.9806 17.2325 15.9806 16.2857C15.9806 15.3389 15.1856 14.5714 14.205 14.5714C13.2243 14.5714 12.4294 15.3389 12.4294 16.2857Z" fill="#7c3aed"/>
</svg>
