<svg width="22" height="21" viewBox="0 0 22 21" fill="none" xmlns="http://www.w3.org/2000/svg">
<path fill-rule="evenodd" clip-rule="evenodd" d="M10.7143 11.375C8.80035 11.375 7.03181 10.3744 6.07485 8.75C5.11789 7.12565 5.11789 5.12436 6.07485 3.5C7.03181 1.87565 8.80035 0.875002 10.7143 0.875002C13.6729 0.875002 16.0714 3.22551 16.0714 6.125C16.0714 9.0245 13.6729 11.375 10.7143 11.375ZM18.75 19.25H16.9643V17.5C16.9643 16.0503 15.7651 14.875 14.2857 14.875H7.14286C5.66353 14.875 4.46429 16.0503 4.46429 17.5V19.25H2.67858V17.5C2.67858 15.0838 4.67731 13.125 7.14286 13.125H14.2857C16.7513 13.125 18.75 15.0838 18.75 17.5V19.25ZM14.2857 6.12501C14.2857 8.058 12.6867 9.62501 10.7143 9.62501C8.74186 9.62501 7.14287 8.058 7.14287 6.12501C7.14287 4.19201 8.74186 2.62501 10.7143 2.62501C12.6867 2.62501 14.2857 4.19201 14.2857 6.12501Z" fill="#7c3aed"/>
</svg>
